<?xml version="1.0" encoding="utf-8"?>
<!-- Generator: Adobe Illustrator 21.1.0, SVG Export Plug-In . SVG Version: 6.00 Build 0)  -->
<svg version="1.1" xmlns="http://www.w3.org/2000/svg" xmlns:xlink="http://www.w3.org/1999/xlink" x="0px" y="0px"
	 viewBox="0 0 188.7 190.3" style="enable-background:new 0 0 188.7 190.3;" xml:space="preserve">
<style type="text/css">
	.st0{fill:url(#SVGID_1_);}
	.st1{fill:url(#SVGID_2_);}
	.st2{opacity:0.7;fill:url(#SVGID_3_);}
	.st3{opacity:0.9;fill:url(#SVGID_4_);}
	.st4{fill:#FFFFFF;}
	.st5{opacity:0.4;fill:#FFFFFF;}
	.st6{fill:url(#SVGID_5_);}
	.st7{fill:#905613;}
	.st8{opacity:0.8;fill:url(#SVGID_6_);}
	.st9{fill:#161616;}
	.st10{fill:url(#SVGID_7_);}
	.st11{fill:url(#SVGID_8_);}
	.st12{fill:url(#SVGID_9_);}
	.st13{fill:url(#SVGID_10_);stroke:#905613;stroke-width:0.25;stroke-miterlimit:10;}
	.st14{fill:url(#SVGID_11_);stroke:#905613;stroke-width:0.25;stroke-miterlimit:10;}
	.st15{fill:url(#SVGID_12_);stroke:#905613;stroke-width:0.25;stroke-miterlimit:10;}
	.st16{display:none;}
</style>
<g id="Layer_1">
	
		<linearGradient id="SVGID_1_" gradientUnits="userSpaceOnUse" x1="-252.9358" y1="-367.2563" x2="-161.828" y2="-288.7634" gradientTransform="matrix(-1 0 0 -1 -125.2803 -243.4443)">
		<stop  offset="0" style="stop-color:#FCCF61"/>
		<stop  offset="8.064520e-02" style="stop-color:#FFFFFF"/>
		<stop  offset="0.1935" style="stop-color:#F4D271"/>
		<stop  offset="0.2642" style="stop-color:#D8A73B"/>
		<stop  offset="0.3223" style="stop-color:#BF8729"/>
		<stop  offset="0.3617" style="stop-color:#B2761F"/>
		<stop  offset="0.378" style="stop-color:#B1741E"/>
		<stop  offset="0.4708" style="stop-color:#AD701D"/>
		<stop  offset="0.5126" style="stop-color:#B77D26"/>
		<stop  offset="0.5587" style="stop-color:#C69133"/>
		<stop  offset="0.6761" style="stop-color:#F4D15E"/>
		<stop  offset="0.6997" style="stop-color:#F1CE5C"/>
		<stop  offset="0.719" style="stop-color:#E9C456"/>
		<stop  offset="0.7367" style="stop-color:#DBB34B"/>
		<stop  offset="0.7536" style="stop-color:#C89A3D"/>
		<stop  offset="0.7696" style="stop-color:#AF7C2A"/>
		<stop  offset="0.7852" style="stop-color:#905613"/>
		<stop  offset="0.8061" style="stop-color:#965E18"/>
		<stop  offset="0.8386" style="stop-color:#A87425"/>
		<stop  offset="0.8785" style="stop-color:#C5973B"/>
		<stop  offset="0.9239" style="stop-color:#EDC95A"/>
		<stop  offset="0.9377" style="stop-color:#FAD964"/>
	</linearGradient>
	<circle class="st0" cx="94.4" cy="95.1" r="20.6"/>
	<linearGradient id="SVGID_2_" gradientUnits="userSpaceOnUse" x1="67.5375" y1="60.9272" x2="111.5145" y2="116.9934">
		<stop  offset="0" style="stop-color:#D8A73B"/>
		<stop  offset="8.413291e-02" style="stop-color:#BF8729"/>
		<stop  offset="0.1413" style="stop-color:#B2761F"/>
		<stop  offset="0.1528" style="stop-color:#B1741E"/>
		<stop  offset="0.2181" style="stop-color:#AD701D"/>
		<stop  offset="0.3007" style="stop-color:#B77D26"/>
		<stop  offset="0.392" style="stop-color:#C69133"/>
		<stop  offset="0.6615" style="stop-color:#905613"/>
		<stop  offset="0.8817" style="stop-color:#905613"/>
		<stop  offset="1" style="stop-color:#3F1400"/>
	</linearGradient>
	<path class="st1" d="M94.4,115.8c11.4,0,20.6-9.2,20.6-20.6c0-11.4-9.2-20.6-20.6-20.6c-11.4,0-20.6,9.2-20.6,20.6
		C73.7,106.5,83,115.8,94.4,115.8z M94.4,74.8c11.2,0,20.3,9.1,20.3,20.3c0,11.2-9.1,20.3-20.3,20.3c-11.2,0-20.3-9.1-20.3-20.3
		C74,83.9,83.2,74.8,94.4,74.8z"/>
	
		<linearGradient id="SVGID_3_" gradientUnits="userSpaceOnUse" x1="108.9799" y1="-357.6041" x2="102.0691" y2="-340.8415" gradientTransform="matrix(1 0 0 -1 -7.207 -243.4443)">
		<stop  offset="2.169910e-02" style="stop-color:#FFFFFF"/>
		<stop  offset="0.2933" style="stop-color:#FAD964"/>
		<stop  offset="0.5567" style="stop-color:#F4D15E"/>
		<stop  offset="0.5912" style="stop-color:#BBA049"/>
		<stop  offset="0.6283" style="stop-color:#857235"/>
		<stop  offset="0.6646" style="stop-color:#584C25"/>
		<stop  offset="0.6993" style="stop-color:#352E18"/>
		<stop  offset="0.7318" style="stop-color:#1B180F"/>
		<stop  offset="0.7613" style="stop-color:#0C0B09"/>
		<stop  offset="0.7852" style="stop-color:#070707"/>
	</linearGradient>
	<path class="st2" d="M79.9,101.9c3,5.4,7.5,8.9,14.1,8.9c9.8,0,16-7.5,16-17.3c0-1.1,3.4-2,3.6-2c0.2,1.1,0.3,2.3,0.3,3.5
		c0,11-8.9,19.9-19.9,19.9c-7.4,0-13.8-4-17.3-10C75.9,103.3,79.3,101.2,79.9,101.9z"/>
	<linearGradient id="SVGID_4_" gradientUnits="userSpaceOnUse" x1="72.8288" y1="81.1558" x2="93.2698" y2="94.3547">
		<stop  offset="2.169910e-02" style="stop-color:#FFFFFF"/>
		<stop  offset="0.2933" style="stop-color:#FAD964"/>
		<stop  offset="0.5868" style="stop-color:#F4D15E"/>
		<stop  offset="0.6492" style="stop-color:#BBA049"/>
		<stop  offset="0.7163" style="stop-color:#857235"/>
		<stop  offset="0.782" style="stop-color:#584C25"/>
		<stop  offset="0.8446" style="stop-color:#352E18"/>
		<stop  offset="0.9034" style="stop-color:#1B180F"/>
		<stop  offset="0.9568" style="stop-color:#0C0B09"/>
		<stop  offset="1" style="stop-color:#070707"/>
	</linearGradient>
	<path class="st3" d="M83.8,106.9c-4.4-4.4-6.6-9.6-4.9-16c2.6-9.4,11.5-13.5,20.9-10.9c1.1,0.3,2.8-2.7,2.9-2.9
		c-1.1-0.5-2.2-0.9-3.3-1.2c-10.6-2.9-21.6,3.3-24.5,13.9c-2,7.1,0.2,14.4,5,19.3C81.4,110.4,84.4,107.7,83.8,106.9z"/>
	<path class="st4" d="M74.6,91.6c-3.2,21.8,26,31.7,37.2,13.6C101,124.7,70.2,113.5,74.6,91.6z"/>
	<path class="st5" d="M74.6,91.6c-3.2,21.8,26,31.7,37.2,13.6C101,124.7,70.2,113.5,74.6,91.6z"/>
	<path class="st4" d="M80.9,80.3c9.7-8.3,21.1-6.2,28.7,2.1c5,5.5,6.6,14.1,2.6,22.1C123,85,97.1,64.9,80.9,80.3z"/>
	
		<linearGradient id="SVGID_5_" gradientUnits="userSpaceOnUse" x1="-236.4861" y1="-359.6515" x2="-209.3286" y2="-325.6608" gradientTransform="matrix(-1 0 0 -1 -125.2803 -243.4443)">
		<stop  offset="0" style="stop-color:#FCCF61"/>
		<stop  offset="6.451610e-02" style="stop-color:#FFFFFF"/>
		<stop  offset="0.1935" style="stop-color:#F4D271"/>
		<stop  offset="0.3738" style="stop-color:#FFFFFF"/>
		<stop  offset="0.4923" style="stop-color:#FAD964"/>
		<stop  offset="0.6485" style="stop-color:#F4D15E"/>
		<stop  offset="0.7642" style="stop-color:#C5973B"/>
		<stop  offset="0.871" style="stop-color:#9F681E"/>
		<stop  offset="0.9241" style="stop-color:#905613"/>
	</linearGradient>
	<circle class="st6" cx="94.4" cy="95.1" r="15.5"/>
	<path class="st7" d="M94.4,110.6c8.5,0,15.5-6.9,15.5-15.5c0-8.5-6.9-15.5-15.5-15.5c-8.5,0-15.5,6.9-15.5,15.5
		C78.9,103.7,85.8,110.6,94.4,110.6z M94.4,80c8.4,0,15.2,6.8,15.2,15.2c0,8.4-6.8,15.2-15.2,15.2c-8.4,0-15.2-6.8-15.2-15.2
		C79.2,86.8,86,80,94.4,80z"/>
	
		<linearGradient id="SVGID_6_" gradientUnits="userSpaceOnUse" x1="-179.5726" y1="-355.6177" x2="-188.1118" y2="-346.8052" gradientTransform="matrix(-0.9977 6.800000e-02 -6.800000e-02 -0.9977 -107.1783 -250.2441)">
		<stop  offset="0" style="stop-color:#FFFFFF"/>
		<stop  offset="8.105183e-02" style="stop-color:#EBD8B7"/>
		<stop  offset="0.1677" style="stop-color:#D7B270"/>
		<stop  offset="0.2302" style="stop-color:#CB9A44"/>
		<stop  offset="0.2617" style="stop-color:#C69133"/>
		<stop  offset="0.6615" style="stop-color:#905613"/>
		<stop  offset="0.7268" style="stop-color:#885011"/>
		<stop  offset="0.828" style="stop-color:#723E0C"/>
		<stop  offset="0.9518" style="stop-color:#4F2104"/>
		<stop  offset="1" style="stop-color:#3F1400"/>
	</linearGradient>
	<path class="st8" d="M83.6,84.8c11.6-11.4,30.1,1.7,24.2,16.2C114.8,86.1,94.7,72.7,83.6,84.8z"/>
	<circle class="st9" cx="94.4" cy="95.1" r="14.9"/>
	<g>
		<g>
			<g>
				<linearGradient id="SVGID_7_" gradientUnits="userSpaceOnUse" x1="90.6674" y1="87.037" x2="97.7728" y2="87.037">
					<stop  offset="0" style="stop-color:#FAD964"/>
					<stop  offset="1" style="stop-color:#905613"/>
				</linearGradient>
				<path class="st10" d="M96.6,88.8H92c0,0,0,0,0,0c0,0,0,0,0,0C91.3,87.9,90,85.8,91,86c1.3,0.3,1.4,1,2.8,0.2
					c1.4-0.8,1.7-1.4,2-0.4c0.3,1,0,1.4,1.1,1.2C98,86.8,98.2,87.1,96.6,88.8z"/>
				<linearGradient id="SVGID_8_" gradientUnits="userSpaceOnUse" x1="86.3758" y1="96.9766" x2="101.9105" y2="96.9766">
					<stop  offset="0" style="stop-color:#FAD964"/>
					<stop  offset="1" style="stop-color:#905613"/>
				</linearGradient>
				<path class="st11" d="M92,89.4c0,0-7.4,6.4-5.2,11.7c0,0,1.1,3.4,7.3,3.4s6.6-2.3,7.3-3.5c0.5-1.7,2-3.9-4.9-11.7H92z"/>
				<linearGradient id="SVGID_9_" gradientUnits="userSpaceOnUse" x1="91.705" y1="89.3992" x2="96.8728" y2="89.3992">
					<stop  offset="0" style="stop-color:#FAD964"/>
					<stop  offset="1" style="stop-color:#905613"/>
				</linearGradient>
				<path class="st12" d="M96.9,89.3c-0.1,0.1-0.1,0.1-0.3,0.1H92c-0.1,0-0.2-0.1-0.3-0.1H96.9z"/>
			</g>
		</g>
	</g>
	<g>
		<path class="st9" d="M97.2,92.5v3.1h-0.6c-0.1-0.8-0.4-1.4-0.8-1.9c-0.5-0.5-1-0.7-1.7-0.7c-0.5,0-0.9,0.1-1.2,0.4
			c-0.3,0.3-0.5,0.6-0.5,1c0,0.4,0.1,0.8,0.4,1.1c0.3,0.3,0.9,0.7,1.9,1.1c1.2,0.6,2.1,1.1,2.5,1.6c0.4,0.5,0.6,1.1,0.6,1.9
			c0,0.9-0.3,1.6-1,2.2c-0.6,0.6-1.4,0.9-2.3,0.9c-0.5,0-1-0.2-1.8-0.5c-0.4-0.2-0.7-0.3-0.8-0.3c-0.2,0-0.3,0.1-0.5,0.2
			c-0.1,0.1-0.2,0.3-0.2,0.5h-0.5v-3.5h0.5c0.2,0.9,0.6,1.6,1.2,2.2c0.6,0.5,1.3,0.8,2.1,0.8c0.5,0,0.9-0.2,1.3-0.5
			c0.3-0.3,0.5-0.8,0.5-1.3c0-0.5-0.2-0.9-0.5-1.2c-0.3-0.4-1-0.8-2-1.2c-1.2-0.5-2-1-2.3-1.5c-0.4-0.5-0.6-1-0.6-1.6
			c0-0.8,0.3-1.5,0.9-2.1c0.6-0.6,1.3-0.9,2.2-0.9c0.4,0,0.8,0.1,1.3,0.3c0.3,0.1,0.6,0.2,0.8,0.2c0.3,0,0.5-0.2,0.6-0.5H97.2z"/>
	</g>
	<rect x="94.7" y="91.5" class="st9" width="0.5" height="12.5"/>
	<rect x="93.3" y="91.5" class="st9" width="0.5" height="12.5"/>
	<path class="st9" d="M76.1,123.1v4.8c-0.9,0.7-2.5,1.2-3.7,1.2c-3,0-5.3-2.1-5.3-4.9c0-2.8,2.4-4.9,5.4-4.9c1.2,0,2.2,0.4,3.2,1.2
		l-1.3,1.8c-0.6-0.4-1.2-0.7-1.9-0.7c-1.6,0-3,1.2-3,2.6c0,1.4,1.2,2.6,2.8,2.6c0.5,0,0.9-0.1,1.3-0.2v-1.3h-2.1v-2.2H76.1z"/>
	<path class="st9" d="M82.7,122.4l-0.5,2.3c-0.3-0.1-0.7-0.3-1.3-0.3c-0.5,0-1.2,0.3-1.2,1.3c0,0.3,0,3,0,3h-2.3v-6.4h2.3v0.6
		c0.2-0.3,1-0.8,1.8-0.8C82,122.2,82.6,122.4,82.7,122.4z"/>
	<path class="st9" d="M90.1,125.6c0,1.9-1.6,3.4-3.5,3.4s-3.5-1.5-3.5-3.4c0-1.9,1.6-3.4,3.5-3.4S90.1,123.7,90.1,125.6z M88,125.6
		c0-0.8-0.6-1.4-1.4-1.4s-1.4,0.6-1.4,1.4c0,0.7,0.6,1.4,1.4,1.4S88,126.4,88,125.6z"/>
	<path class="st9" d="M101.1,122.4l-2.1,6.4h-2.1l-1.1-3.3l-1.1,3.3h-2.1l-2.1-6.4h2.5l0.8,3.5l1-3.5h2.2l1,3.5l0.8-3.5H101.1z"/>
	<linearGradient id="SVGID_10_" gradientUnits="userSpaceOnUse" x1="102.2715" y1="124.1733" x2="112.0605" y2="124.1733">
		<stop  offset="0" style="stop-color:#FAD964"/>
		<stop  offset="1" style="stop-color:#905613"/>
	</linearGradient>
	<path class="st13" d="M108.6,127.2h-3l-0.6,1.7h-2.8l3.5-9.3h2.7l3.5,9.3h-2.8L108.6,127.2z M107.9,125l-0.7-2.1l-0.7,2.1H107.9z"
		/>
	<linearGradient id="SVGID_11_" gradientUnits="userSpaceOnUse" x1="112.7559" y1="126.9941" x2="119.7568" y2="126.9941">
		<stop  offset="0" style="stop-color:#FAD964"/>
		<stop  offset="1" style="stop-color:#905613"/>
	</linearGradient>
	<path class="st14" d="M116.8,129c-0.7,0-1.3-0.2-1.8-0.6v3.3h-2.3v-9.3h2.3v0.6c0.2-0.4,1.1-0.8,1.8-0.8c1.8,0,2.9,1.5,2.9,3.4
		C119.8,127.5,118.6,129,116.8,129z M116.3,124.1c-0.7,0-1.3,0.7-1.3,1.5c0,0.8,0.6,1.5,1.3,1.5c0.7,0,1.2-0.7,1.2-1.5
		C117.5,124.8,117,124.1,116.3,124.1z"/>
	<linearGradient id="SVGID_12_" gradientUnits="userSpaceOnUse" x1="120.8262" y1="126.9941" x2="127.8271" y2="126.9941">
		<stop  offset="0" style="stop-color:#FAD964"/>
		<stop  offset="1" style="stop-color:#905613"/>
	</linearGradient>
	<path class="st15" d="M124.9,129c-0.7,0-1.3-0.2-1.8-0.6v3.3h-2.3v-9.3h2.3v0.6c0.2-0.4,1.1-0.8,1.8-0.8c1.8,0,2.9,1.5,2.9,3.4
		C127.8,127.5,126.7,129,124.9,129z M124.3,124.1c-0.7,0-1.3,0.7-1.3,1.5c0,0.8,0.6,1.5,1.3,1.5c0.7,0,1.2-0.7,1.2-1.5
		C125.6,124.8,125.1,124.1,124.3,124.1z"/>
</g>
<g id="Layer_2" class="st16">
</g>
</svg>
