<svg xmlns="http://www.w3.org/2000/svg" width="55.258" height="47.505" viewBox="0 0 55.258 47.505">
  <g id="money" transform="translate(0 -28.588)">
    <g id="Group_63" data-name="Group 63" transform="translate(0 28.588)">
      <g id="Group_62" data-name="Group 62" transform="translate(0 0)">
        <path id="Path_65" data-name="Path 65" d="M55.181,55.469h0l-10.433-26.2a1.085,1.085,0,0,0-1.409-.607h0L1.012,45.519a1.063,1.063,0,0,0-.434.345A1.073,1.073,0,0,0,0,46.806v28.2a1.085,1.085,0,0,0,1.085,1.085H46.644a1.085,1.085,0,0,0,1.085-1.085v-15.4l6.847-2.727A1.085,1.085,0,0,0,55.181,55.469ZM45.559,73.924H2.169V47.891H45.559ZM18.1,45.727l18.163-7.237a8.63,8.63,0,0,0,6.219,2.681l1.812,4.556ZM47.728,57.276V46.806a1.085,1.085,0,0,0-1.085-1.085h-.017l-2.3-5.773a.9.9,0,0,0-.089-.137,1.072,1.072,0,0,0-1.134-.835,6.487,6.487,0,0,1-5.687-2.449,1.075,1.075,0,0,0-1.392-.243,1.218,1.218,0,0,0-.153.028L13.7,45.142a1.072,1.072,0,0,0-.6.579H6.37L43.133,31.083l9.631,24.184Z" transform="translate(0 -28.588)" fill="#fff"/>
        <path id="Path_66" data-name="Path 66" d="M32.774,203.486a6.486,6.486,0,0,1,4.379,4.374,1.085,1.085,0,0,0,1.039.775.994.994,0,0,0,.167-.025,1.011,1.011,0,0,0,.149.03H64.542a.938.938,0,0,0,.132-.027,1.01,1.01,0,0,0,1.22-.743v-.006a6.485,6.485,0,0,1,4.379-4.379,1.071,1.071,0,0,0,.744-1.193,1.094,1.094,0,0,0,.031-.161v-8.678a.98.98,0,0,0-.033-.161,1.069,1.069,0,0,0-.744-1.193,6.479,6.479,0,0,1-4.377-4.38,1.072,1.072,0,0,0-1.2-.744,1.032,1.032,0,0,0-.153-.03H38.508a1.026,1.026,0,0,0-.162.033,1.072,1.072,0,0,0-1.193.744,6.486,6.486,0,0,1-4.379,4.378,1.071,1.071,0,0,0-.744,1.193,1.1,1.1,0,0,0-.03.161v8.678a1,1,0,0,0,.03.151A1.074,1.074,0,0,0,32.774,203.486Zm1.395-9.592a8.608,8.608,0,0,0,4.779-4.779H64.1a8.61,8.61,0,0,0,4.78,4.779v7.8A8.617,8.617,0,0,0,64.1,206.47H38.949a8.617,8.617,0,0,0-4.779-4.779Z" transform="translate(-27.661 -165.473)" fill="#fff"/>
        <path id="Path_67" data-name="Path 67" d="M134.508,231.962A6.508,6.508,0,1,0,128,225.453,6.508,6.508,0,0,0,134.508,231.962Zm0-10.847a4.339,4.339,0,1,1-4.339,4.339A4.339,4.339,0,0,1,134.508,221.114Z" transform="translate(-110.644 -193.134)" fill="#fff"/>
        <path id="Path_68" data-name="Path 68" d="M77.627,258.2A1.627,1.627,0,1,0,76,256.572,1.627,1.627,0,0,0,77.627,258.2Zm0-2.169a.542.542,0,1,1-.542.542A.542.542,0,0,1,77.627,256.03Z" transform="translate(-65.695 -224.253)" fill="#fff"/>
        <path id="Path_69" data-name="Path 69" d="M253.627,258.2A1.627,1.627,0,1,0,252,256.572,1.627,1.627,0,0,0,253.627,258.2Zm0-2.169a.542.542,0,1,1-.542.542A.542.542,0,0,1,253.627,256.03Z" transform="translate(-217.831 -224.253)" fill="#fff"/>
      </g>
    </g>
  </g>
</svg>
